HIERARCHY
ROOT Hips
{
	OFFSET 0.000000 0.000000 0.000000
	CHANNELS 6 Xposition Yposition Zposition Zrotation Yrotation Xrotation 
	JOINT LeftUpLeg_virtual
	{
		OFFSET 0.000000 0.000000 0.000000
		CHANNELS 3 Zrotation Yrotation Xrotation
		JOINT LeftUpLeg
		{
			OFFSET 10.205400 -3.823500 0.155100
			CHANNELS 3 Zrotation Yrotation Xrotation
			JOINT LeftLeg
			{
				OFFSET 0.708757 -12.982077 0.567790
				CHANNELS 3 Zrotation Yrotation Xrotation
				JOINT LeftFoot
				{
					OFFSET -0.708756 -10.717838 -2.184338
					CHANNELS 3 Zrotation Yrotation Xrotation
					JOINT LeftToeBase
					{
						OFFSET 0.108149 -7.191104 7.560241
						CHANNELS 3 Zrotation Yrotation Xrotation
						End Site
						{
							OFFSET 0.000000 0.000000 0.000000
						}
					}
				}
			}
		}
	}
	JOINT RightUpLeg_virtual
	{
		OFFSET 0.000000 0.000000 0.000000
		CHANNELS 3 Zrotation Yrotation Xrotation
		JOINT RightUpLeg
		{
			OFFSET -10.205400 -3.823500 0.005500
			CHANNELS 3 Zrotation Yrotation Xrotation
			JOINT RightLeg
			{
				OFFSET -0.708756 -12.982134 0.610632
				CHANNELS 3 Zrotation Yrotation Xrotation
				JOINT RightFoot
				{
					OFFSET 0.708754 -10.717769 -1.945823
					CHANNELS 3 Zrotation Yrotation Xrotation
					JOINT RightToeBase
					{
						OFFSET -0.108140 -7.191069 7.372968
						CHANNELS 3 Zrotation Yrotation Xrotation
						End Site
						{
							OFFSET 0.000000 0.000000 0.000000
						}
					}
				}
			}
		}
	}
	JOINT Spine_virtual
	{
		OFFSET 0.000000 0.000000 0.000000
		CHANNELS 3 Zrotation Yrotation Xrotation
		JOINT Spine
		{
			OFFSET 0.000000 6.876099 0.125700
			CHANNELS 3 Zrotation Yrotation Xrotation
			JOINT Spine1
			{
				OFFSET 0.000000 8.022060 0.146608
				CHANNELS 3 Zrotation Yrotation Xrotation
				JOINT Spine2
				{
					OFFSET 0.000000 9.168068 0.167552
					CHANNELS 3 Zrotation Yrotation Xrotation
					JOINT Neck_virtual
					{
						OFFSET 0.000000 0.000000 0.000000
						CHANNELS 3 Zrotation Yrotation Xrotation
						JOINT Neck
						{
							OFFSET 0.000000 10.314075 0.188496
							CHANNELS 3 Zrotation Yrotation Xrotation
							JOINT Head
							{
								OFFSET 0.000000 7.643700 -2.377400
								CHANNELS 3 Zrotation Yrotation Xrotation
								End Site
								{
									OFFSET 0.000000 0.000000 0.000000
								}
							}
						}
					}
					JOINT LeftShoulder_virtual
					{
						OFFSET 0.000000 0.000000 0.000000
						CHANNELS 3 Zrotation Yrotation Xrotation
						JOINT LeftShoulder
						{
							OFFSET 4.392200 8.824978 0.174984
							CHANNELS 3 Zrotation Yrotation Xrotation
							JOINT LeftArm
							{
								OFFSET 8.771219 -2.981674 -0.026999
								CHANNELS 3 Zrotation Yrotation Xrotation
								JOINT LeftForeArm
								{
									OFFSET 8.512804 0.000000 -0.000000
									CHANNELS 3 Zrotation Yrotation Xrotation
									JOINT LeftHand
									{
										OFFSET 18.484802 0.000000 -0.000000
										CHANNELS 3 Zrotation Yrotation Xrotation
										End Site
										{
											OFFSET 0.000000 0.000000 0.000000
										}
									}
								}
							}
						}
					}
					JOINT RightShoulder_virtual
					{
						OFFSET 0.000000 0.000000 0.000000
						CHANNELS 3 Zrotation Yrotation Xrotation
						JOINT RightShoulder
						{
							OFFSET -4.392200 8.824993 0.141379
							CHANNELS 3 Zrotation Yrotation Xrotation
							JOINT RightArm
							{
								OFFSET -8.771282 -2.981682 -0.094208
								CHANNELS 3 Zrotation Yrotation Xrotation
								JOINT RightForeArm
								{
									OFFSET -8.494598 0.000000 0.000000
									CHANNELS 3 Zrotation Yrotation Xrotation
									JOINT RightHand
									{
										OFFSET -18.483803 0.000000 0.000001
										CHANNELS 3 Zrotation Yrotation Xrotation
										End Site
										{
											OFFSET 0.000000 0.000000 0.000000
										}
									}
								}
							}
						}
					}
				}
			}
		}
	}
}
MOTION
Frames: 12
Frame Time: 0.033333
-1.300999 1.670826 26.440031 -179.811615 3.056449 -179.856899 20.272019 -4.081587 -56.770733 -3.601711 16.820678 -118.872612 15.537379 -17.001032 130.185578 -11.582949 -14.720562 21.924943 0.000000 0.000000 0.000000 10.058979 6.234262 -57.390173 7.194377 10.582052 -91.712666 -12.828775 0.627302 70.323751 7.575756 14.687518 20.632291 0.000000 0.000000 0.000000 7.509349 1.410952 -25.527745 -1.499513 -3.306867 -2.449290 -4.511524 -1.572739 15.598211 0.036633 0.025785 0.070368 -5.071928 -0.856377 20.981895 0.300360 -4.893950 26.663021 0.000000 0.000000 0.000000 -0.978204 -0.483609 14.914951 -13.522478 -4.551542 6.617051 -20.700674 19.815516 9.709047 -1.836555 -58.998382 12.786116 0.000000 0.000000 0.000000 -7.674239 1.143832 14.039543 19.844899 13.336160 1.075899 48.618844 -28.917453 16.286045 -11.230611 57.098240 -11.356404 0.000000 0.000000 0.000000 
-1.213662 1.684947 26.381371 -179.926239 2.830758 -179.817899 20.228954 -4.009049 -56.447743 -3.541631 16.950195 -118.993507 15.514536 -16.926790 130.281405 -11.719211 -15.401223 21.663063 0.000000 0.000000 0.000000 10.078347 6.294397 -56.862185 7.766705 10.793873 -93.225320 -13.144727 0.565152 73.206336 7.455890 14.874315 20.657333 0.000000 0.000000 0.000000 7.428437 1.437749 -25.130699 -1.388512 -3.256115 -2.227263 -4.429574 -1.717580 15.597702 -0.022470 0.030412 0.065408 -4.906462 -0.944045 20.855066 0.146271 -4.896152 26.533601 0.000000 0.000000 0.000000 -0.789271 -0.502125 14.756847 -13.246581 -4.374419 6.670195 -20.853565 19.751145 11.957721 -1.931710 -60.508960 12.826160 0.000000 0.000000 0.000000 -7.507099 1.150213 14.004424 19.331331 13.593285 1.185668 49.071091 -28.765133 17.382468 -11.534747 57.639488 -11.659358 0.000000 0.000000 0.000000 
-1.140673 1.705769 26.327255 -179.905953 2.755348 -179.840698 20.263235 -3.905778 -55.956431 -3.321606 17.160632 -119.107571 15.377553 -16.673095 130.471981 -12.192343 -15.326985 21.328574 0.000000 0.000000 0.000000 10.235557 6.375078 -56.123740 8.211621 11.033545 -94.906401 -13.408516 0.514447 76.713898 7.287026 14.968329 20.401089 0.000000 0.000000 0.000000 7.458122 1.431058 -24.624954 -1.171782 -3.175132 -2.001937 -4.295880 -1.683656 15.608937 -0.014660 -0.004819 0.056890 -4.764115 -1.008433 20.787776 0.037938 -4.833121 26.383395 0.000000 0.000000 0.000000 -0.669285 -0.591334 14.706533 -12.827739 -4.435491 6.834309 -20.764600 19.404687 14.711039 -1.996919 -61.958552 12.825007 0.000000 0.000000 0.000000 -7.377629 1.082405 13.968129 18.831282 13.839678 1.268664 49.365080 -28.466663 18.240763 -11.672892 57.957618 -12.046173 0.000000 0.000000 0.000000 
-1.096765 1.719795 26.261353 -179.857527 2.955358 -179.821969 20.383255 -3.823819 -55.417935 -2.905808 17.445582 -119.302122 15.244161 -16.759461 130.960326 -12.873818 -15.572066 20.741003 0.000000 0.000000 0.000000 10.451059 6.418680 -55.220874 8.701735 11.275870 -96.804524 -13.627834 0.834495 80.949968 6.826661 15.401981 19.809804 0.000000 0.000000 0.000000 7.503022 1.420427 -24.120419 -0.883772 -3.183768 -1.773201 -4.290004 -1.680928 15.730933 -0.067860 0.029499 0.022351 -4.622966 -1.158594 20.758360 -0.124344 -4.755654 26.175059 0.000000 0.000000 0.000000 -0.485066 -0.613978 14.707194 -12.309641 -4.559470 6.868568 -20.396181 18.963279 17.945175 -2.275698 -63.267714 13.035945 0.000000 0.000000 0.000000 -7.192796 1.031640 14.014117 18.350717 14.227842 1.330081 49.554245 -28.102439 18.784699 -11.697064 57.991660 -12.226692 0.000000 0.000000 0.000000 
-1.093529 1.709706 26.227905 -179.938588 2.910620 -179.955049 20.366593 -4.166527 -54.942178 -2.632877 17.663219 -119.573881 14.865649 -16.480970 131.338199 -12.960046 -15.701855 20.099952 0.000000 0.000000 0.000000 10.508079 6.042779 -54.193436 8.844264 11.524476 -99.009678 -13.777441 1.157332 85.846435 6.278428 15.751248 18.853591 0.000000 0.000000 0.000000 7.360386 1.416165 -23.598785 -0.725414 -3.349175 -1.357548 -4.189425 -1.798391 15.897286 -0.006225 -0.069368 0.023937 -4.583676 -1.162818 20.755651 -0.326185 -4.693503 25.997630 0.000000 0.000000 0.000000 -0.469395 -0.681116 14.700553 -11.817164 -4.819711 7.015795 -19.856729 18.385590 21.061974 -2.488945 -64.306463 13.181179 0.000000 0.000000 0.000000 -7.157126 0.991016 14.029477 17.914241 14.548679 1.260875 49.515634 -27.818954 19.099562 -11.448175 57.827407 -12.177593 0.000000 0.000000 0.000000 
-1.122751 1.663786 26.223021 -179.875586 3.076283 -179.872048 20.506682 -4.121596 -54.476960 -2.599581 17.800825 -120.020467 15.068377 -16.509208 131.308365 -13.095394 -15.717843 19.801290 0.000000 0.000000 0.000000 10.611005 5.965763 -53.363001 8.803066 11.739483 -101.397280 -13.768034 1.627493 91.176168 5.585585 16.233379 17.639348 0.000000 0.000000 0.000000 7.448492 1.284431 -23.109168 -0.394849 -3.401730 -1.127357 -4.174245 -1.785592 16.127052 0.006581 -0.046049 -0.007945 -4.589878 -1.162697 20.911066 -0.536814 -4.603957 25.779420 0.000000 0.000000 0.000000 -0.510532 -0.730699 14.867433 -11.384858 -5.198109 7.183494 -19.356758 17.692041 23.689574 -2.670147 -65.048154 13.268300 0.000000 0.000000 0.000000 -7.163122 0.995484 14.147433 17.523117 14.799883 1.234545 49.284237 -27.417134 19.194995 -11.305406 57.628266 -12.252191 0.000000 0.000000 0.000000 
-1.158639 1.592660 26.243326 179.871652 3.260163 179.869617 20.280773 -4.041110 -53.713226 -2.590534 17.902165 -120.394296 15.536271 -16.374373 131.130056 -13.215091 -15.541662 19.732164 0.000000 0.000000 0.000000 10.480506 6.089498 -52.348093 8.677774 11.981665 -103.598636 -13.582704 2.077431 96.703348 4.925316 16.792445 16.402942 0.000000 0.000000 0.000000 7.351824 1.303468 -22.304953 -0.157949 -3.604424 -0.843747 -4.262132 -1.759883 16.437494 0.016571 -0.025809 -0.017894 -4.626968 -1.204896 21.059584 -0.835131 -4.513163 25.628582 0.000000 0.000000 0.000000 -0.524288 -0.739958 14.988092 -11.093836 -5.560254 7.555805 -18.920271 17.003449 25.321497 -2.759572 -65.532236 13.224758 0.000000 0.000000 0.000000 -7.179338 0.922298 14.366996 17.226357 15.214948 1.051384 48.651215 -27.042189 19.366392 -11.075249 57.669002 -12.354994 0.000000 0.000000 0.000000 
-1.192721 1.513772 26.301830 179.896432 3.221181 179.860847 20.317827 -3.861529 -53.035357 -2.494814 18.144189 -120.564600 16.533079 -16.093947 130.609227 -13.199347 -16.158249 19.626596 0.000000 0.000000 0.000000 10.486109 6.303366 -51.464813 8.535418 12.214566 -105.858117 -13.219288 2.505185 102.004839 4.308183 17.339989 15.244547 0.000000 0.000000 0.000000 7.311612 1.502349 -21.666549 0.250515 -3.750635 -0.767535 -4.294954 -1.760815 16.741005 -0.015495 0.000442 -0.054290 -4.670634 -1.263447 21.385729 -1.113231 -4.244553 25.460865 0.000000 0.000000 0.000000 -0.605853 -0.871066 15.348443 -10.845303 -6.023215 7.700254 -18.445440 16.250389 26.032475 -3.094196 -65.906968 13.399546 0.000000 0.000000 0.000000 -7.215938 0.799729 14.623415 17.120976 15.421573 1.012724 47.730509 -26.514157 19.618212 -11.102343 58.215526 -12.436676 0.000000 0.000000 0.000000 
-1.209003 1.450012 26.326485 179.839782 3.260252 179.857104 20.290576 -3.765034 -52.460385 -2.643576 18.421124 -120.737199 16.992025 -15.842614 130.354488 -13.215546 -16.346912 19.040694 0.000000 0.000000 0.000000 10.480773 6.492961 -50.690877 8.518890 12.374518 -107.727410 -12.751337 2.798575 106.917725 3.834002 17.850518 14.272599 0.000000 0.000000 0.000000 7.381954 1.473499 -21.157163 0.491000 -3.875355 -0.703506 -4.391403 -1.785476 17.054969 -0.029313 0.049508 -0.003898 -4.769682 -1.252854 21.687085 -1.524905 -4.324569 25.290066 0.000000 0.000000 0.000000 -0.666303 -0.825400 15.589893 -10.662448 -6.435946 8.025530 -17.929743 15.272434 25.703368 -3.363105 -66.282273 13.456507 0.000000 0.000000 0.000000 -7.240963 0.840620 14.883664 17.079014 15.826679 0.911909 46.421879 -25.780450 19.748833 -11.196794 59.273625 -12.729487 0.000000 0.000000 0.000000 
-1.202716 1.420551 26.294786 179.846135 3.170174 179.851544 20.345079 -3.926181 -52.083082 -2.792111 18.733571 -120.756583 16.782967 -15.464423 130.552045 -13.197281 -16.038503 18.137658 0.000000 0.000000 0.000000 10.557652 6.351636 -49.969862 8.613568 12.510620 -109.314931 -12.210269 2.969623 111.263194 3.354555 18.232285 13.391783 0.000000 0.000000 0.000000 7.295115 1.415895 -20.900570 0.777104 -3.963499 -0.623092 -4.390293 -1.818788 17.430556 0.046944 -0.022748 -0.047327 -4.881585 -1.349630 22.196569 -1.860482 -4.189916 25.096415 0.000000 0.000000 0.000000 -0.738204 -0.824816 16.025355 -10.453792 -7.022347 8.255186 -17.261252 13.851437 24.684333 -3.762904 -66.695042 13.621480 0.000000 0.000000 0.000000 -7.264656 0.819660 15.260400 17.190567 16.264446 0.838730 44.845516 -24.509799 19.436360 -11.149531 60.605238 -12.836925 0.000000 0.000000 0.000000 
-1.194511 1.418406 26.193510 179.745430 3.442217 179.785537 20.352398 -3.832901 -51.812661 -3.312173 18.707063 -120.788371 16.664190 -15.555209 131.077477 -13.003096 -14.723528 16.800247 0.000000 0.000000 0.000000 10.558227 6.170200 -49.367108 8.800931 12.533126 -110.469834 -11.720759 3.046888 115.031560 2.915208 18.409887 12.402245 0.000000 0.000000 0.000000 7.106970 1.230331 -20.791849 0.974158 -3.872953 -0.385197 -4.392322 -1.871941 17.787464 -0.005607 -0.055453 0.063230 -4.797529 -1.251014 22.391822 -2.182252 -4.081624 24.658484 0.000000 0.000000 0.000000 -0.708324 -0.813008 16.197794 -10.339278 -7.786773 8.462055 -16.450700 11.721604 22.763904 -4.365800 -67.119108 13.949410 0.000000 0.000000 0.000000 -7.176033 0.811744 15.470197 17.357459 16.922229 0.795491 43.057680 -22.380727 18.444962 -11.370370 61.877081 -13.241362 0.000000 0.000000 0.000000 
-1.196342 1.432449 26.031687 179.728232 3.782274 179.642650 20.214450 -3.634861 -51.563676 -3.751193 18.605335 -120.773836 17.347694 -15.299199 131.848565 -10.921816 -13.989867 15.011876 0.000000 0.000000 0.000000 10.451324 5.708351 -48.594108 8.898946 12.314700 -111.517544 -11.371966 3.049642 118.287115 2.410304 18.465326 11.143028 0.000000 0.000000 0.000000 6.809202 1.041940 -20.738546 1.111357 -3.925776 -0.052515 -4.299940 -1.712165 18.171810 0.058077 -0.124433 -0.063706 -4.705336 -1.333708 22.920518 -2.359461 -3.864672 24.154303 0.000000 0.000000 0.000000 -0.664533 -0.895528 16.564761 -10.182590 -8.854205 8.580666 -15.488489 8.786903 20.292212 -4.996223 -67.453036 14.276367 0.000000 0.000000 0.000000 -7.007111 0.830784 15.803448 17.547854 17.621514 0.734418 40.964422 -19.308844 16.562027 -11.511212 62.854652 -13.549693 0.000000 0.000000 0.000000 
